<svg xmlns="http://www.w3.org/2000/svg" width="25" height="20" fill="none" viewBox="0 0 25 20">
  <path fill="#000" d="M20.67.505h.814c.77 0 1.127.716 1.127 1.259v8.442c0 .609-.358 1.173-1.047 1.169h-.893V.505Zm.82-.313h-3.237v.313h.857v18.977h-.857v.336h3.651v-.336h-1.233V11.76h1.063c1.548 0 2.428-.815 2.428-1.91V2.266c0-1.093-.76-2.076-2.673-2.074ZM4.361.444c0 .313-.182.29-.329.186C3.508.261 2.863-.004 2.287 0 1.35.007.004.461 0 2.44v14.548c.014 2.527 1.23 3 2.429 3.012.933.009 1.377-.484 1.755-.648.2-.087.417.114.417.487h.388v-9.255h.777v-.312H2.482v.312h.953v7.96c0 .646-.439 1.135-.991 1.136-.532 0-.94-.506-.94-1.135V1.86c0-.453.08-1.508.78-1.503 1.35.01 2.067 3.958 2.077 6h.388V.182h-.386v.263ZM10.323 11.4l.946-8.468.966 8.468h-1.912Zm1.951.347.88 7.73h-.865v.336h3.25v-.336h-.857L12.523.188h-1.382L9.136 18.406c-.118.654-.18 1.058-1.12 1.072v.335h2.436v-.336c-.69 0-1.002-.44-.934-.909l.766-6.821h1.99Z"/>
</svg>
