<svg id="icon-path-favourite-active" width="24" height="24" viewBox="0 0 24 24" xmlns="http://www.w3.org/2000/svg">
      <style>
 #icon-path-favourite-active {
  animation: favourite-loaded 1s ease-in-out;
}
        
@keyframes favourite-loaded {
  0% {
    fill-opacity: 0;
    transform: scale(1);
  }

  50% {
    transform: scale(1.25);
  }

  100% {
    fill-opacity: 1;
    transform: scale(1);
  }
}
  </style>  
    <path id="default" d="M17.417 2c1.679 0 3.258.593 4.448 1.669 1.325 1.198 2.069 2.82 2.095 4.564.026 1.743-.666 3.38-1.948 4.612l-9.189 8.827c-.22.211-.514.328-.824.328-.31 0-.601-.117-.822-.328l-9.19-8.827C.705 11.614.013 9.975.04 8.232.066 6.487.81 4.867 2.134 3.67 3.324 2.593 4.904 2 6.582 2c1.852 0 3.669.725 4.984 1.99l.433.415.434-.416A7.255 7.255 0 0 1 17.417 2Z"/>
</svg>