<svg xmlns="http://www.w3.org/2000/svg" width="24" height="24" fill="none" viewBox="0 0 24 24">
  <g id="document-m-default">
    <path id="default" fill="#000" fill-rule="evenodd" d="M19.308 2a.5.5 0 0 1 .5.5v19a.5.5 0 0 1-.5.5H4.692a.5.5 0 0 1-.5-.5v-19a.5.5 0 0 1 .5-.5h14.616Zm-.5 1H5.192v18h13.616V3Zm-8.15 9.403a.5.5 0 0 1 0 1H7.961a.5.5 0 1 1 0-1h2.695Zm4.099-3.378a.5.5 0 0 1 0 1H7.962a.5.5 0 0 1 0-1h6.795Zm1.662-3.378a.5.5 0 0 1 0 1H7.962a.5.5 0 0 1 0-1h8.457Z" clip-rule="evenodd"/>
  </g>
</svg>
