<svg xmlns="http://www.w3.org/2000/svg" width="24" height="24" fill="none" viewBox="0 0 24 24">
  <g id="international-m-default">
    <path id="default" fill="#000" fill-rule="evenodd" d="M21.967 11.167a9.949 9.949 0 0 0-.542-2.5A9.157 9.157 0 0 0 20.668 7c-1.6-2.758-4.484-4.691-7.834-4.966A9.167 9.167 0 0 0 12 2a9.16 9.16 0 0 0-.833.034C7.818 2.309 4.934 4.242 3.334 7a9.094 9.094 0 0 0-.758 1.667 9.949 9.949 0 0 0-.542 4.167c.075.866.258 1.708.542 2.5.199.583.45 1.141.758 1.666 1.6 2.759 4.484 4.692 7.833 4.967.275.025.55.033.833.033.284 0 .559-.008.834-.033 3.35-.275 6.234-2.208 7.834-4.967a9.148 9.148 0 0 0 .757-1.666 9.958 9.958 0 0 0 .542-2.5c.026-.275.033-.55.033-.834 0-.283-.007-.558-.033-.833Zm-10.8-7.35V7H8.4c.659-1.566 1.617-2.783 2.767-3.183Zm0 4.85v2.5H7.45c.05-.842.184-1.692.4-2.5h3.317Zm-3.6-3.708A10.305 10.305 0 0 0 6.592 7h-1.25a8.13 8.13 0 0 1 2.225-2.041Zm-3.2 3.708h1.751a13.902 13.902 0 0 0-.342 2.5H3.709a8.293 8.293 0 0 1 .658-2.5Zm0 6.667a8.293 8.293 0 0 1-.658-2.5h2.067c.041.875.158 1.708.342 2.5H4.367ZM5.342 17h1.25c.267.75.592 1.434.975 2.042A8.133 8.133 0 0 1 5.342 17Zm2.108-4.166h3.717v2.5H7.85a12.677 12.677 0 0 1-.4-2.5ZM8.4 17h2.767v3.184c-1.15-.4-2.108-1.617-2.767-3.184ZM18.659 7h-1.25a10.25 10.25 0 0 0-.975-2.041A8.13 8.13 0 0 1 18.659 7Zm-5.825-3.183c1.15.4 2.109 1.617 2.767 3.183h-2.767V3.817Zm0 4.85h3.317c.217.808.35 1.658.399 2.5h-3.716v-2.5Zm0 11.517V17h2.767c-.658 1.567-1.617 2.784-2.767 3.184Zm0-4.85v-2.5h3.716a12.53 12.53 0 0 1-.399 2.5h-3.317Zm3.6 3.708A10.26 10.26 0 0 0 17.409 17h1.25a8.133 8.133 0 0 1-2.225 2.042Zm3.2-3.708h-1.75c.184-.792.3-1.625.341-2.5h2.067a8.323 8.323 0 0 1-.658 2.5Zm-1.409-4.167a13.902 13.902 0 0 0-.341-2.5h1.75c.342.775.566 1.617.658 2.5h-2.067Z" clip-rule="evenodd"/>
  </g>
</svg>
