<svg xmlns="http://www.w3.org/2000/svg" width="21" height="16" fill="none" viewBox="0 0 21 16">
  <g clip-path="url(#a)">
    <path fill="#fff" d="M20.898 12.774A3.23 3.23 0 0 1 17.672 16H.123V3.226A3.23 3.23 0 0 1 3.349 0h17.549v12.774Z"/>
    <path fill="url(#b)" d="M15.183 9.498h1.334c.038 0 .127-.012.165-.012a.596.596 0 0 0 .47-.597.606.606 0 0 0-.47-.597c-.038-.012-.114-.012-.165-.012h-1.334V9.5v-.002Z"/>
    <path fill="url(#c)" d="M16.364 1.08a2.31 2.31 0 0 0-2.31 2.31v2.4h3.263c.075 0 .165 0 .228.013.736.038 1.283.419 1.283 1.08 0 .52-.368.964-1.054 1.053v.025c.75.051 1.32.47 1.32 1.118 0 .698-.635 1.156-1.473 1.156H14.04v4.698h3.39a2.31 2.31 0 0 0 2.311-2.31V1.078h-3.378.001Z"/>
    <path fill="url(#d)" d="M16.987 7.035a.54.54 0 0 0-.47-.546c-.025 0-.09-.013-.127-.013h-1.206v1.118h1.206c.038 0 .114 0 .127-.013a.54.54 0 0 0 .47-.546Z"/>
    <path fill="url(#e)" d="M3.59 1.08a2.31 2.31 0 0 0-2.311 2.31v5.702c.648.317 1.32.52 1.994.52.8 0 1.232-.482 1.232-1.142V5.778h1.98v2.679c0 1.041-.647 1.892-2.844 1.892-1.333 0-2.374-.292-2.374-.292v4.863h3.39a2.31 2.31 0 0 0 2.311-2.31V1.08H3.59Z"/>
    <path fill="url(#f)" d="M9.977 1.08a2.31 2.31 0 0 0-2.311 2.31v3.022c.584-.495 1.6-.813 3.238-.736.877.038 1.816.28 1.816.28v.978a4.397 4.397 0 0 0-1.752-.508c-1.245-.09-1.994.52-1.994 1.587s.75 1.69 1.994 1.587c.723-.05 1.282-.28 1.752-.508v.978s-.927.241-1.816.28c-1.638.076-2.654-.242-3.238-.736v5.333h3.39a2.31 2.31 0 0 0 2.311-2.311V1.079h-3.39Z"/>
  </g>
  <defs>
    <linearGradient id="b" x1="14.039" x2="19.747" y1="8.87" y2="8.87" gradientUnits="userSpaceOnUse">
      <stop stop-color="#007940"/>
      <stop offset=".23" stop-color="#00873F"/>
      <stop offset=".74" stop-color="#40A737"/>
      <stop offset="1" stop-color="#5CB531"/>
    </linearGradient>
    <linearGradient id="c" x1="14.039" x2="19.743" y1="7.987" y2="7.987" gradientUnits="userSpaceOnUse">
      <stop stop-color="#007940"/>
      <stop offset=".23" stop-color="#00873F"/>
      <stop offset=".74" stop-color="#40A737"/>
      <stop offset="1" stop-color="#5CB531"/>
    </linearGradient>
    <linearGradient id="d" x1="14.039" x2="19.747" y1="7.015" y2="7.015" gradientUnits="userSpaceOnUse">
      <stop stop-color="#007940"/>
      <stop offset=".23" stop-color="#00873F"/>
      <stop offset=".74" stop-color="#40A737"/>
      <stop offset="1" stop-color="#5CB531"/>
    </linearGradient>
    <linearGradient id="e" x1="1.259" x2="7.057" y1="7.981" y2="7.981" gradientUnits="userSpaceOnUse">
      <stop stop-color="#1F286F"/>
      <stop offset=".48" stop-color="#004E94"/>
      <stop offset=".83" stop-color="#0066B1"/>
      <stop offset="1" stop-color="#006FBC"/>
    </linearGradient>
    <linearGradient id="f" x1="7.618" x2="13.249" y1="7.994" y2="7.994" gradientUnits="userSpaceOnUse">
      <stop stop-color="#6C2C2F"/>
      <stop offset=".17" stop-color="#882730"/>
      <stop offset=".57" stop-color="#BE1833"/>
      <stop offset=".86" stop-color="#DC0436"/>
      <stop offset="1" stop-color="#E60039"/>
    </linearGradient>
    <clipPath id="a">
      <path fill="#fff" d="M0 0h20.775v16H0z" transform="translate(.123)"/>
    </clipPath>
  </defs>
</svg>
